# xmcd
#
# Track frame offsets: 
#        150
#        17363
#        39022
#        61987
#        90599
#        109758
#        129565
#        151122
#        179512
#        202503
#
# Disc length: 2974 seconds
#
# Revision: 0
# Processed by: cddbd v1.5.2PL0 Copyright (c) Steve Scherf et al.
# Submitted via: ExactAudioCopy v1.0b3
#
DISCID=690b9c0a
DTITLE=Various Artist - Xuan Kinh Chuc Phat Tai #2
DYEAR=2001
DGENRE=
TTITLE0=Thai Hien, Thai Thao, Duy Quang, Thien Phuong - Xuan ca
TTITLE1=Khanh Ly - Xuan thi
TTITLE2=Ha Thanh - Xuan muon
TTITLE3=Bang Kieu, My Linh, Hong Nhung, Thanh Lam - Lang nghe mua Xuan
TTITLE3=ve
TTITLE4=Si Phu - Tinh khuc mua Xuan
TTITLE5=Da Nhat Yen - Anh cho em mua Xuan
TTITLE6=Ngoc Lan - Ta da gap mua Xuan
TTITLE7=Elvis Phuong - Anh da thay mua Xuan
TTITLE8=Thanh Lan - Diep khuc mua Xuan
TTITLE9=Thuy Duong - Hoa Xuan
EXTD=
EXTT0=
EXTT1=
EXTT2=
EXTT3=
EXTT4=
EXTT5=
EXTT6=
EXTT7=
EXTT8=
EXTT9=
PLAYORDER=
